<svg xmlns="http://www.w3.org/2000/svg" viewBox="2 2 20 12" fill="#007ACC">
  <path d="M11.25 4.533A9.707 9.707 0 006 3a9.735 9.735 0 00-3.25.555.75.75 0 00-.5.516l-.318 1.843a.75.75 0 00.434.828c.951.441 1.625 1.084 1.845 2.056.23.973.235 2.404.22 3.968a.75.75 0 00.525.75A23.633 23.633 0 006 13.52c.264 0 .524.004.78.012A.75.75 0 007.518 13c-.004-.775-.01-1.89.176-2.61.166-.644.646-1.077 1.706-1.574a.75.75 0 00.413-.746l-.318-1.844a.75.75 0 00-.501-.555A9.707 9.707 0 0011.25 4.533zM12.75 3c-.264 0-.525.004-.781.012a.75.75 0 00-.737.516l-.318 1.843a.75.75 0 00.434.828c.951.441 1.625 1.084 1.845 2.056.23.973.235 2.404.22 3.968a.75.75 0 00.525.75A23.659 23.659 0 0018 13.52c.264 0 .524.004.78.012a.75.75 0 00.737-.516l.318-1.844a.75.75 0 00-.457-.847c-1.06-.497-1.54-1.01-1.706-1.654-.186-.72-.18-1.835-.176-2.61a.75.75 0 00-.738-.738A8.995 8.995 0 0012.75 3z" />
</svg>
